# xmcd CD database file
#
# Track frame offsets:
#	150
#	16490
#	34457
#	48117
#	65562
#	85342
#	102067
#	120742
#	138887
#	157505
#	176072
#	192927
#	209942
#	227000
#
# Disc length: 3277 seconds
#
# Revision: 0
# Processed by: cddbd v1.5.1PL0 Copyright (c) Steve Scherf et al.
# Submitted via: Feurio! 1.68 - http://www.feurio.com
#
DISCID=bc0ccb0e
DTITLE=Andreas Martin - Seine Hits
DYEAR=1900
DGENRE=
TTITLE0=Deine Flügel fangen Feuer
TTITLE1=Du bist alles (Maria, Maria)
TTITLE2=Herz an Herz
TTITLE3=Solang´wir uns lieben
TTITLE4=Lieben kann man nie genug
TTITLE5=Du wirst an mich denken
TTITLE6=Keine Macht der Welt
TTITLE7=Auch wenn wir lügen müssen
TTITLE8=Nachtblind
TTITLE9=Hinter den Wolken
TTITLE10=Tausend Träume weit
TTITLE11=Im Schatten der Sehnsucht
TTITLE12=Janine
TTITLE13=Nur bei Dir (Just for you)
EXTD=
EXTT0=
EXTT1=
EXTT2=
EXTT3=
EXTT4=
EXTT5=
EXTT6=
EXTT7=
EXTT8=
EXTT9=
EXTT10=
EXTT11=
EXTT12=
EXTT13=
PLAYORDER=
